<svg width="131" height="119" viewBox="0 0 131 119" fill="none" xmlns="http://www.w3.org/2000/svg">
<rect y="61.4434" width="111.231" height="68.8998" rx="34.4499" transform="rotate(-33.5318 0 61.4434)" fill="url(#paint0_linear_245_6)"/>
<path d="M42.2696 54.8951L44.4303 53.4633L58.958 76.0825L57.4375 77.09L42.2696 54.8951ZM63.3945 84.4288C62.861 84.7823 62.2838 84.896 61.6629 84.7701C61.042 84.6441 60.5547 84.3143 60.2012 83.7808C59.8477 83.2473 59.7339 82.6701 59.8599 82.0492C59.9859 81.4283 60.3157 80.9411 60.8492 80.5875C61.3827 80.234 61.9599 80.1203 62.5808 80.2463C63.2017 80.3722 63.6889 80.702 64.0424 81.2355C64.396 81.769 64.5097 82.3462 64.3837 82.9671C64.2578 83.588 63.928 84.0752 63.3945 84.4288ZM51.7257 48.6291L53.8864 47.1973L68.4141 69.8165L66.8936 70.8241L51.7257 48.6291ZM72.8506 78.1628C72.3171 78.5163 71.7399 78.6301 71.119 78.5041C70.4981 78.3781 70.0109 78.0483 69.6573 77.5148C69.3038 76.9813 69.1901 76.4041 69.316 75.7832C69.442 75.1623 69.7718 74.6751 70.3053 74.3216C70.8388 73.968 71.416 73.8543 72.0369 73.9803C72.6578 74.1063 73.145 74.436 73.4986 74.9695C73.8521 75.503 73.9658 76.0802 73.8399 76.7011C73.7139 77.322 73.3841 77.8093 72.8506 78.1628ZM61.1819 42.3631L63.3425 40.9314L77.8702 63.5505L76.3498 64.5581L61.1819 42.3631ZM82.3067 71.8968C81.7732 72.2503 81.196 72.3641 80.5751 72.2381C79.9542 72.1121 79.467 71.7824 79.1135 71.2488C78.7599 70.7153 78.6462 70.1381 78.7722 69.5172C78.8981 68.8963 79.2279 68.4091 79.7614 68.0556C80.2949 67.7021 80.8721 67.5883 81.493 67.7143C82.1139 67.8403 82.6011 68.17 82.9547 68.7035C83.3082 69.237 83.422 69.8142 83.296 70.4351C83.17 71.0561 82.8402 71.5433 82.3067 71.8968Z" fill="white"/>
<defs>
<linearGradient id="paint0_linear_245_6" x1="47.9444" y1="82.0839" x2="84.7212" y2="54.7943" gradientUnits="userSpaceOnUse">
<stop stop-color="#EAB5D1"/>
<stop offset="1" stop-color="#EAC461"/>
</linearGradient>
</defs>
</svg>
