<svg width="143" height="146" viewBox="0 0 143 146" fill="none" xmlns="http://www.w3.org/2000/svg">
<path d="M0.84 54.23C1.6 43.21 5.21 33.71 11.67 25.73C18.13 17.6233 26.68 11.4167 37.32 7.11C48.0867 2.67666 60.2467 0.459994 73.8 0.459994C86.72 0.459994 97.9933 2.42333 107.62 6.35C117.373 10.2767 124.91 15.7867 130.23 22.88C135.677 29.9733 138.4 38.1433 138.4 47.39C138.4 54.61 136.5 61.3233 132.7 67.53C128.9 73.61 122.883 79.69 114.65 85.77C106.417 91.85 95.5867 98.31 82.16 105.15L41.12 126.81L39.03 117.31H142.39V146H3.31V120.92L64.49 85.77C74.2433 80.1967 81.8433 75.4467 87.29 71.52C92.8633 67.4667 96.79 63.73 99.07 60.31C101.35 56.89 102.49 53.2167 102.49 49.29C102.49 45.2367 101.35 41.6267 99.07 38.46C96.9167 35.2933 93.6233 32.8233 89.19 31.05C84.7567 29.2767 79.1833 28.39 72.47 28.39C64.49 28.39 57.9033 29.5933 52.71 32C47.5167 34.28 43.6533 37.3833 41.12 41.31C38.5867 45.2367 37.0667 49.5433 36.56 54.23H0.84Z" fill="url(#paint0_linear_31_77)"/>
<defs>
<linearGradient id="paint0_linear_31_77" x1="45.2931" y1="15.1173" x2="101.81" y2="-0.817271" gradientUnits="userSpaceOnUse">
<stop stop-color="#EAB5D1"/>
<stop offset="1" stop-color="#EAC461"/>
</linearGradient>
</defs>
</svg>
