<svg width="144" height="150" viewBox="0 0 144 150" fill="none" xmlns="http://www.w3.org/2000/svg">
<path d="M4.5 49.1C5.13333 40.1067 8.3 31.9367 14 24.59C19.7 17.2433 27.8067 11.4167 38.32 7.11C48.96 2.67666 61.8167 0.459994 76.89 0.459994C89.81 0.459994 101.02 2.16999 110.52 5.59C120.147 8.88332 127.62 13.5067 132.94 19.46C138.26 25.2867 140.92 32.19 140.92 40.17C140.92 46.63 138.957 52.52 135.03 57.84C131.23 63.0333 125.213 67.2133 116.98 70.38C108.747 73.42 98.2333 74.8767 85.44 74.75V70.95C97.6 70.3167 108.05 71.2033 116.79 73.61C125.53 76.0167 132.243 79.8167 136.93 85.01C141.617 90.2033 143.96 96.7267 143.96 104.58C143.96 113.193 141.237 120.857 135.79 127.57C130.343 134.157 122.363 139.413 111.85 143.34C101.463 147.14 88.7967 149.04 73.85 149.04C59.2833 149.04 46.5533 147.013 35.66 142.96C24.8933 138.78 16.47 133.017 10.39 125.67C4.43667 118.197 1.20667 109.457 0.7 99.45H36.42C37.4333 106.417 40.98 111.8 47.06 115.6C53.2667 119.273 62.1967 121.11 73.85 121.11C84.87 121.11 93.23 119.463 98.93 116.17C104.757 112.75 107.67 108 107.67 101.92C107.67 98.3733 106.72 95.46 104.82 93.18C102.92 90.7733 99.69 88.9367 95.13 87.67C90.57 86.4033 84.2367 85.77 76.13 85.77H51.43V61.26H76.13C86.6433 61.26 94.0533 59.8033 98.36 56.89C102.667 53.85 104.82 49.9233 104.82 45.11C104.82 39.79 102.287 35.6733 97.22 32.76C92.28 29.8467 84.8067 28.39 74.8 28.39C64.4133 28.39 56.3067 30.2267 50.48 33.9C44.78 37.4467 41.36 42.5133 40.22 49.1H4.5Z" fill="url(#paint0_linear_31_78)"/>
<defs>
<linearGradient id="paint0_linear_31_78" x1="60.9483" y1="15.1173" x2="130.279" y2="-10.0149" gradientUnits="userSpaceOnUse">
<stop stop-color="#EAB5D1"/>
<stop offset="1" stop-color="#EAC461"/>
</linearGradient>
</defs>
</svg>
