<svg width="140" height="147" viewBox="0 0 140 147" fill="none" xmlns="http://www.w3.org/2000/svg">
<path d="M18.56 0.499989H128.38V27.48H29.39L43.83 20.64L35.85 74.22H26.73C29.5167 69.5333 33.3167 65.2267 38.13 61.3C43.07 57.3733 49.0867 54.2067 56.18 51.8C63.2733 49.3933 71.5067 48.19 80.88 48.19C93.04 48.19 103.49 50.2167 112.23 54.27C120.97 58.3233 127.683 63.8967 132.37 70.99C137.183 78.0833 139.59 86.2533 139.59 95.5C139.59 105.253 136.867 113.93 131.42 121.53C125.973 129.13 118.12 135.147 107.86 139.58C97.7267 143.887 85.5667 146.04 71.38 146.04C57.4467 146.04 45.35 144.013 35.09 139.96C24.83 135.907 16.7867 130.397 10.96 123.43C5.13333 116.337 1.71333 108.483 0.7 99.87H36.42C37.8133 105.443 41.4867 109.877 47.44 113.17C53.52 116.463 61.5 118.11 71.38 118.11C78.0933 118.11 83.8567 117.223 88.67 115.45C93.4833 113.55 97.22 110.89 99.88 107.47C102.54 104.05 103.87 99.9967 103.87 95.31C103.87 90.8767 102.667 86.95 100.26 83.53C97.98 80.11 94.4967 77.45 89.81 75.55C85.25 73.65 79.55 72.7 72.71 72.7C67.01 72.7 61.88 73.3333 57.32 74.6C52.8867 75.8667 48.96 77.5133 45.54 79.54C42.2467 81.5667 39.5233 83.6567 37.37 85.81H6.59L18.56 0.499989Z" fill="white"/>
</svg>
