<svg width="217" height="48" viewBox="0 0 217 48" fill="none" xmlns="http://www.w3.org/2000/svg">
<rect x="174" y="4" width="43" height="43" rx="21.5" fill="#3DE12F"/>
<path d="M196.026 25.63V24.85L205.986 37H203.886L194.916 25.99H195.606L186.606 37H184.506L194.436 24.94V25.54L185.376 14.5H187.386L195.636 24.52H194.886L203.106 14.5H205.116L196.026 25.63Z" fill="white"/>
<path d="M38.1769 27C37.8569 29.7467 36.9102 32.1467 35.3369 34.2C33.7902 36.2533 31.7369 37.8533 29.1769 39C26.6169 40.1467 23.6835 40.72 20.3769 40.72C16.8035 40.72 13.6835 40.0667 11.0169 38.76C8.35021 37.4533 6.27021 35.6267 4.77688 33.28C3.31021 30.9067 2.57688 28.1467 2.57688 25C2.57688 21.8533 3.31021 19.1067 4.77688 16.76C6.27021 14.3867 8.35021 12.5467 11.0169 11.24C13.6835 9.93333 16.8035 9.28 20.3769 9.28C23.6835 9.28 26.6169 9.85333 29.1769 11C31.7369 12.1467 33.7902 13.7467 35.3369 15.8C36.9102 17.8533 37.8569 20.2533 38.1769 23H27.8169C27.5769 21.96 27.1369 21.08 26.4969 20.36C25.8569 19.6133 25.0169 19.0533 23.9769 18.68C22.9635 18.28 21.7635 18.08 20.3769 18.08C18.8302 18.08 17.4969 18.36 16.3769 18.92C15.2835 19.4533 14.4435 20.24 13.8569 21.28C13.2702 22.32 12.9769 23.56 12.9769 25C12.9769 26.44 13.2702 27.68 13.8569 28.72C14.4435 29.7333 15.2835 30.52 16.3769 31.08C17.4969 31.64 18.8302 31.92 20.3769 31.92C21.7635 31.92 22.9635 31.7467 23.9769 31.4C25.0169 31.0267 25.8569 30.48 26.4969 29.76C27.1369 29.0133 27.5769 28.0933 27.8169 27H38.1769ZM49.2063 47.32C47.2863 47.32 45.5929 47.08 44.1263 46.6C42.6863 46.1467 41.2463 45.3867 39.8063 44.32V37.52C41.2196 38.4267 42.5263 39.08 43.7263 39.48C44.9529 39.8533 46.2729 40.04 47.6863 40.04C48.8063 40.04 49.7796 39.8133 50.6063 39.36C51.4596 38.88 52.1529 37.9733 52.6863 36.64L60.4863 17H71.2863L60.8063 39.68C59.9263 41.6 58.8463 43.12 57.5663 44.24C56.3129 45.36 54.9663 46.1467 53.5263 46.6C52.0863 47.08 50.6463 47.32 49.2063 47.32ZM47.9263 36.92L38.6863 17H49.8863L57.6063 36.92H47.9263ZM73.0606 9.2H83.2206V22.88L81.9806 25.4V32.2L83.2206 34.4V40H73.0606V9.2ZM80.2206 28.52C80.4873 26.0133 81.1406 23.8533 82.1806 22.04C83.2473 20.2 84.634 18.7867 86.3406 17.8C88.0473 16.7867 89.9806 16.28 92.1406 16.28C94.4073 16.28 96.3806 16.7867 98.0606 17.8C99.7406 18.8133 101.047 20.24 101.981 22.08C102.941 23.92 103.421 26.0667 103.421 28.52C103.421 30.9467 102.941 33.08 101.981 34.92C101.047 36.76 99.7406 38.1867 98.0606 39.2C96.3806 40.2133 94.4073 40.72 92.1406 40.72C89.954 40.72 88.0073 40.2133 86.3006 39.2C84.6206 38.1867 83.2606 36.7733 82.2206 34.96C81.1806 33.12 80.514 30.9733 80.2206 28.52ZM93.1806 28.52C93.1806 27.64 92.994 26.8533 92.6206 26.16C92.274 25.4667 91.7673 24.92 91.1006 24.52C90.4606 24.12 89.714 23.92 88.8606 23.92C87.9806 23.92 87.1273 24.12 86.3006 24.52C85.474 24.92 84.754 25.4667 84.1406 26.16C83.5273 26.8533 83.0873 27.64 82.8206 28.52C83.0873 29.4 83.5273 30.1867 84.1406 30.88C84.754 31.5467 85.474 32.08 86.3006 32.48C87.1273 32.88 87.9806 33.08 88.8606 33.08C89.714 33.08 90.4606 32.88 91.1006 32.48C91.7673 32.08 92.274 31.5467 92.6206 30.88C92.994 30.1867 93.1806 29.4 93.1806 28.52ZM120.46 40.72C117.607 40.72 115.047 40.2133 112.78 39.2C110.54 38.16 108.767 36.72 107.46 34.88C106.153 33.0133 105.5 30.8533 105.5 28.4C105.5 25.9733 106.127 23.8533 107.38 22.04C108.66 20.2267 110.393 18.8133 112.58 17.8C114.767 16.7867 117.22 16.28 119.94 16.28C122.793 16.28 125.22 16.8667 127.22 18.04C129.22 19.2133 130.753 20.88 131.82 23.04C132.887 25.1733 133.42 27.7067 133.42 30.64H113.82V25.96H127.5L124.78 27.48C124.647 26.44 124.38 25.5733 123.98 24.88C123.58 24.1867 123.047 23.6667 122.38 23.32C121.74 22.9467 120.967 22.76 120.06 22.76C119.047 22.76 118.18 22.9867 117.46 23.44C116.767 23.8933 116.233 24.52 115.86 25.32C115.513 26.0933 115.34 26.9733 115.34 27.96C115.34 29.24 115.62 30.32 116.18 31.2C116.767 32.0533 117.647 32.7067 118.82 33.16C119.993 33.6133 121.473 33.84 123.26 33.84C124.993 33.84 126.673 33.6267 128.3 33.2C129.953 32.7467 131.473 32.1067 132.86 31.28V37.04C131.153 38.24 129.207 39.16 127.02 39.8C124.86 40.4133 122.673 40.72 120.46 40.72ZM135.145 17H145.545L146.905 25.12V40H136.745V25L135.145 17ZM157.065 16.52V25.12C156.158 24.96 155.345 24.8533 154.625 24.8C153.905 24.72 153.265 24.68 152.705 24.68C151.691 24.68 150.745 24.8667 149.865 25.24C148.985 25.5867 148.265 26.2267 147.705 27.16C147.171 28.0933 146.905 29.4267 146.905 31.16L145.105 28.92C145.371 27.2667 145.705 25.6933 146.105 24.2C146.531 22.68 147.091 21.3333 147.785 20.16C148.478 18.96 149.358 18.0133 150.425 17.32C151.491 16.6267 152.825 16.28 154.425 16.28C154.825 16.28 155.238 16.3067 155.665 16.36C156.091 16.3867 156.558 16.44 157.065 16.52Z" fill="white"/>
</svg>
