<svg width="131" height="119" viewBox="0 0 131 119" fill="none" xmlns="http://www.w3.org/2000/svg">
<g id="&#208;&#152;&#208;&#186;&#208;&#190;&#208;&#189;&#208;&#186;&#208;&#176; &#208;&#161;&#208;&#190;&#208;&#183;&#208;&#180;&#208;&#176;&#209;&#130;&#209;&#140;">
<rect id="Rectangle 11" y="61.4441" width="111.231" height="68.8998" rx="34.4499" transform="rotate(-33.5318 0 61.4441)" fill="url(#paint0_linear_245_3)"/>
<g id=" &#34;radio waves&#34;">
<path id="Vector" fill-rule="evenodd" clip-rule="evenodd" d="M70.5463 56.7071C72.4313 59.5518 71.5453 63.4582 68.5668 65.4318C65.5883 67.4055 61.6456 66.6989 59.7605 63.8541C57.8755 61.0094 58.7615 57.103 61.74 55.1294C64.7185 53.1557 68.6612 53.8623 70.5463 56.7071ZM54.3676 67.4277C52.0009 63.8561 51.8228 59.45 53.4879 55.6866L47.6518 53.3886C45.154 59.0336 45.4246 65.6437 48.9748 71.0012C52.5249 76.3587 58.5068 79.1845 64.6789 79.0844L64.837 72.8137C60.7223 72.8805 56.7343 70.9993 54.3676 67.4277ZM75.9391 53.1336C78.3058 56.7052 78.4838 61.111 76.8185 64.8744L82.655 67.1727C85.1529 61.5278 84.8821 54.9176 81.332 49.56C77.7819 44.2025 71.8001 41.3768 65.6279 41.477L65.4694 47.7472C69.5842 47.6806 73.5724 49.562 75.9391 53.1336ZM65.9444 28.9414L65.7862 35.2092C74.0154 35.0757 81.9917 38.8436 86.7249 45.9865C91.4581 53.1295 91.8191 61.9435 88.4887 69.4699L94.3224 71.7671C98.4854 62.3595 98.0344 51.3419 92.1177 42.413C86.2012 33.4842 76.231 28.7744 65.9444 28.9414ZM64.3624 91.6198L64.5208 85.3524C56.2912 85.4856 48.3151 81.7177 43.5819 74.5747C38.8487 67.4318 38.4876 58.6178 41.8179 51.091L35.9844 48.794C31.8213 58.202 32.2723 69.2192 38.189 78.1482C44.1058 87.0774 54.076 91.7869 64.3624 91.6198Z" fill="white"/>
</g>
</g>
<defs>
<linearGradient id="paint0_linear_245_3" x1="47.9444" y1="82.0847" x2="84.7212" y2="54.7951" gradientUnits="userSpaceOnUse">
<stop stop-color="#EAB5D1"/>
<stop offset="1" stop-color="#EAC461"/>
</linearGradient>
</defs>
</svg>
