<svg width="480" height="107" viewBox="0 0 480 107" fill="none" xmlns="http://www.w3.org/2000/svg">
<rect width="480" height="107" rx="53.5" fill="url(#paint0_linear_14_34)"/>
<path d="M98.12 39V69H88.8V43.04L93 47.24H70.72L74.92 43.04V69H65.6V39H98.12ZM116.344 69.68C113.384 69.68 110.784 69.1733 108.544 68.16C106.304 67.1467 104.557 65.7333 103.304 63.92C102.05 62.08 101.424 59.96 101.424 57.56C101.424 55.1067 102.05 52.9733 103.304 51.16C104.557 49.32 106.304 47.9067 108.544 46.92C110.784 45.9067 113.397 45.4 116.384 45.4C119.344 45.4 121.944 45.9067 124.184 46.92C126.424 47.9067 128.157 49.32 129.384 51.16C130.637 52.9733 131.264 55.1067 131.264 57.56C131.264 59.96 130.637 62.08 129.384 63.92C128.157 65.7333 126.424 67.1467 124.184 68.16C121.944 69.1733 119.33 69.68 116.344 69.68ZM116.384 62.96C117.584 62.96 118.597 62.7467 119.424 62.32C120.277 61.8933 120.917 61.28 121.344 60.48C121.797 59.6533 122.024 58.68 122.024 57.56C122.024 56.4133 121.797 55.44 121.344 54.64C120.917 53.8133 120.277 53.1867 119.424 52.76C118.597 52.3333 117.584 52.12 116.384 52.12C115.184 52.12 114.157 52.3333 113.304 52.76C112.45 53.1867 111.797 53.8133 111.344 54.64C110.917 55.44 110.704 56.4 110.704 57.52C110.704 58.6667 110.917 59.6533 111.344 60.48C111.797 61.28 112.45 61.8933 113.304 62.32C114.157 62.7467 115.184 62.96 116.384 62.96ZM162.295 46.08V69H153.135V48.68L157.295 52.84H139.455L143.615 48.68V69H134.455V46.08H162.295ZM166.447 46.08H175.607V52.2L175.247 53.24V60.24L175.607 62.28V75.6H166.447V46.08ZM172.807 57.56C173.127 55.08 173.821 52.9333 174.887 51.12C175.981 49.28 177.381 47.8667 179.087 46.88C180.794 45.8933 182.727 45.4 184.887 45.4C187.127 45.4 189.087 45.9067 190.767 46.92C192.474 47.9067 193.794 49.32 194.727 51.16C195.687 52.9733 196.167 55.1067 196.167 57.56C196.167 59.96 195.687 62.08 194.727 63.92C193.794 65.7333 192.474 67.1467 190.767 68.16C189.087 69.1733 187.127 69.68 184.887 69.68C182.701 69.68 180.754 69.1867 179.047 68.2C177.367 67.1867 175.994 65.7733 174.927 63.96C173.861 62.12 173.154 59.9867 172.807 57.56ZM186.927 57.56C186.927 56.5467 186.714 55.6533 186.287 54.88C185.887 54.08 185.314 53.4533 184.567 53C183.821 52.5467 182.967 52.32 182.007 52.32C181.021 52.32 180.074 52.5467 179.167 53C178.261 53.4533 177.461 54.08 176.767 54.88C176.101 55.6533 175.607 56.5467 175.287 57.56C175.607 58.5733 176.101 59.4667 176.767 60.24C177.461 61.0133 178.261 61.6267 179.167 62.08C180.074 62.5333 181.021 62.76 182.007 62.76C182.967 62.76 183.821 62.5333 184.567 62.08C185.314 61.6267 185.887 61.0133 186.287 60.24C186.714 59.4667 186.927 58.5733 186.927 57.56ZM213.336 69.68C210.376 69.68 207.776 69.1733 205.536 68.16C203.296 67.1467 201.549 65.7333 200.296 63.92C199.043 62.08 198.416 59.96 198.416 57.56C198.416 55.1067 199.043 52.9733 200.296 51.16C201.549 49.32 203.296 47.9067 205.536 46.92C207.776 45.9067 210.389 45.4 213.376 45.4C216.336 45.4 218.936 45.9067 221.176 46.92C223.416 47.9067 225.149 49.32 226.376 51.16C227.629 52.9733 228.256 55.1067 228.256 57.56C228.256 59.96 227.629 62.08 226.376 63.92C225.149 65.7333 223.416 67.1467 221.176 68.16C218.936 69.1733 216.323 69.68 213.336 69.68ZM213.376 62.96C214.576 62.96 215.589 62.7467 216.416 62.32C217.269 61.8933 217.909 61.28 218.336 60.48C218.789 59.6533 219.016 58.68 219.016 57.56C219.016 56.4133 218.789 55.44 218.336 54.64C217.909 53.8133 217.269 53.1867 216.416 52.76C215.589 52.3333 214.576 52.12 213.376 52.12C212.176 52.12 211.149 52.3333 210.296 52.76C209.443 53.1867 208.789 53.8133 208.336 54.64C207.909 55.44 207.696 56.4 207.696 57.52C207.696 58.6667 207.909 59.6533 208.336 60.48C208.789 61.28 209.443 61.8933 210.296 62.32C211.149 62.7467 212.176 62.96 213.376 62.96ZM246.287 69.68C243.007 69.68 240.194 69.08 237.847 67.88C235.527 66.68 233.754 64.96 232.527 62.72C231.301 60.48 230.687 57.76 230.687 54.56C230.687 49.8133 232.007 46.08 234.647 43.36C237.314 40.6133 241.141 39.0267 246.127 38.6C248.181 38.44 249.874 38.3067 251.207 38.2C252.541 38.0667 253.634 37.9467 254.487 37.84C255.367 37.7067 256.101 37.5733 256.687 37.44C257.301 37.28 257.901 37.1067 258.487 36.92V44.32C257.821 44.56 257.034 44.76 256.127 44.92C255.247 45.08 254.141 45.2133 252.807 45.32C251.474 45.4 249.821 45.4933 247.847 45.6C244.487 45.7067 242.047 46.4933 240.527 47.96C239.007 49.4 238.247 51.5467 238.247 54.4V55.08L238.007 54.4C238.461 53.1467 239.221 52.0533 240.287 51.12C241.354 50.1867 242.634 49.48 244.127 49C245.647 48.4933 247.287 48.24 249.047 48.24C251.367 48.24 253.394 48.6667 255.127 49.52C256.861 50.3733 258.207 51.5867 259.167 53.16C260.127 54.7067 260.607 56.5067 260.607 58.56C260.607 60.8 260.007 62.76 258.807 64.44C257.634 66.0933 255.981 67.3867 253.847 68.32C251.714 69.2267 249.194 69.68 246.287 69.68ZM246.527 62.96C247.514 62.96 248.367 62.7867 249.087 62.44C249.834 62.0933 250.394 61.6 250.767 60.96C251.167 60.32 251.367 59.5733 251.367 58.72C251.367 57.84 251.167 57.0933 250.767 56.48C250.394 55.84 249.834 55.3467 249.087 55C248.367 54.6533 247.514 54.48 246.527 54.48C245.114 54.48 243.834 54.84 242.687 55.56C241.541 56.28 240.674 57.24 240.087 58.44C240.434 59.7733 241.194 60.8667 242.367 61.72C243.567 62.5467 244.954 62.96 246.527 62.96ZM277.711 69.68C274.751 69.68 272.151 69.1733 269.911 68.16C267.671 67.1467 265.924 65.7333 264.671 63.92C263.418 62.08 262.791 59.96 262.791 57.56C262.791 55.1067 263.418 52.9733 264.671 51.16C265.924 49.32 267.671 47.9067 269.911 46.92C272.151 45.9067 274.764 45.4 277.751 45.4C280.711 45.4 283.311 45.9067 285.551 46.92C287.791 47.9067 289.524 49.32 290.751 51.16C292.004 52.9733 292.631 55.1067 292.631 57.56C292.631 59.96 292.004 62.08 290.751 63.92C289.524 65.7333 287.791 67.1467 285.551 68.16C283.311 69.1733 280.698 69.68 277.711 69.68ZM277.751 62.96C278.951 62.96 279.964 62.7467 280.791 62.32C281.644 61.8933 282.284 61.28 282.711 60.48C283.164 59.6533 283.391 58.68 283.391 57.56C283.391 56.4133 283.164 55.44 282.711 54.64C282.284 53.8133 281.644 53.1867 280.791 52.76C279.964 52.3333 278.951 52.12 277.751 52.12C276.551 52.12 275.524 52.3333 274.671 52.76C273.818 53.1867 273.164 53.8133 272.711 54.64C272.284 55.44 272.071 56.4 272.071 57.52C272.071 58.6667 272.284 59.6533 272.711 60.48C273.164 61.28 273.818 61.8933 274.671 62.32C275.524 62.7467 276.551 62.96 277.751 62.96ZM295.028 69L296.508 57.52L295.028 46.08H314.348C316.561 46.08 318.334 46.6 319.668 47.64C321.001 48.6533 321.668 50.04 321.668 51.8C321.668 53.4533 320.988 54.8 319.628 55.84C318.294 56.88 316.441 57.52 314.068 57.76L314.628 56.36C317.374 56.4933 319.468 57.08 320.908 58.12C322.348 59.16 323.068 60.6 323.068 62.44C323.068 64.44 322.321 66.04 320.828 67.24C319.334 68.4133 317.348 69 314.868 69H295.028ZM303.828 67.16L300.308 63.44H311.668C312.388 63.44 312.934 63.28 313.308 62.96C313.681 62.6133 313.868 62.1467 313.868 61.56C313.868 60.9733 313.668 60.5067 313.268 60.16C312.868 59.8133 312.268 59.64 311.468 59.64H302.068V55.12H310.468C311.134 55.12 311.641 54.96 311.988 54.64C312.334 54.32 312.508 53.8933 312.508 53.36C312.508 52.8267 312.334 52.4133 311.988 52.12C311.668 51.8 311.188 51.64 310.548 51.64H300.348L303.828 47.92L305.188 57.52L303.828 67.16ZM346.614 69L345.534 60.84L346.654 57.56L345.534 54.32L346.614 46.08H356.134L354.614 57.52L356.134 69H346.614ZM348.654 57.56C348.334 59.9867 347.627 62.12 346.534 63.96C345.467 65.7733 344.08 67.1867 342.374 68.2C340.694 69.1867 338.76 69.68 336.574 69.68C334.36 69.68 332.4 69.1733 330.694 68.16C328.987 67.1467 327.654 65.7333 326.694 63.92C325.76 62.08 325.294 59.96 325.294 57.56C325.294 55.1067 325.76 52.9733 326.694 51.16C327.654 49.32 328.987 47.9067 330.694 46.92C332.4 45.9067 334.36 45.4 336.574 45.4C338.76 45.4 340.694 45.8933 342.374 46.88C344.08 47.8667 345.48 49.28 346.574 51.12C347.667 52.9333 348.36 55.08 348.654 57.56ZM334.534 57.56C334.534 58.5733 334.734 59.4667 335.134 60.24C335.56 61.0133 336.147 61.6267 336.894 62.08C337.64 62.5333 338.494 62.76 339.454 62.76C340.44 62.76 341.387 62.5333 342.294 62.08C343.2 61.6267 344 61.0133 344.694 60.24C345.387 59.4667 345.894 58.5733 346.214 57.56C345.894 56.5467 345.387 55.6533 344.694 54.88C344 54.08 343.2 53.4533 342.294 53C341.387 52.5467 340.44 52.32 339.454 52.32C338.494 52.32 337.64 52.5467 336.894 53C336.147 53.4533 335.56 54.08 335.134 54.88C334.734 55.6533 334.534 56.5467 334.534 57.56ZM366.688 49.24H375.848V69H366.688V49.24ZM358.248 46.08H384.288V52.92H358.248V46.08ZM386.916 69V46.08H396.036V66.8L393.316 62.64H400.876C401.756 62.64 402.423 62.4267 402.876 62C403.356 61.5733 403.596 60.9733 403.596 60.2C403.596 59.4267 403.356 58.8267 402.876 58.4C402.423 57.9733 401.756 57.76 400.876 57.76H393.196V51.68H402.436C404.516 51.68 406.329 52.04 407.876 52.76C409.423 53.48 410.623 54.4933 411.476 55.8C412.329 57.08 412.756 58.6 412.756 60.36C412.756 62.0933 412.329 63.6133 411.476 64.92C410.623 66.2 409.436 67.2 407.916 67.92C406.396 68.64 404.609 69 402.556 69H386.916Z" fill="white"/>
<defs>
<linearGradient id="paint0_linear_14_34" x1="206.897" y1="32.0544" x2="253.757" y2="-64.5684" gradientUnits="userSpaceOnUse">
<stop stop-color="#EAB5D1"/>
<stop offset="1" stop-color="#EAC461"/>
</linearGradient>
</defs>
</svg>
