<svg width="310" height="20" viewBox="0 0 310 20" fill="none" xmlns="http://www.w3.org/2000/svg">
<path d="M5 6.08696C5.54811 6.95227 6.01312 7.70142 6.4134 8.35979C9.79316 13.9188 17.2734 14.3682 21.1038 9.10957V9.10957C24.5438 4.38692 31.4369 3.97282 35.4175 8.24968L38.447 11.5047C42.5462 15.9089 49.6446 15.4824 53.187 10.6192L53.7416 9.85779C57.2895 4.98697 64.5545 4.98697 68.1024 9.85779V9.85779C71.7097 14.8101 79.1291 14.7101 82.6016 9.66239L82.7985 9.37628C86.1087 4.5645 93.0233 4.0555 97.0024 8.3307L100.146 11.708C104.063 15.9171 110.916 15.2861 114.041 10.4594V10.4594C117.333 5.37393 124.69 5.0423 128.382 9.84512L128.553 10.0675C132.23 14.849 139.562 14.4456 142.691 9.28974V9.28974C145.568 4.55066 152.116 3.74231 156.059 7.63958L161.072 12.5944C164.894 16.3723 171.241 15.5887 174.03 10.9948L174.984 9.4233C177.668 5.00146 184.02 4.82052 186.952 9.08218C187.527 9.91872 188.098 10.7488 188.677 11.5901C191.157 15.1946 196.65 14.5935 198.291 10.5379V10.5379C200.015 6.27902 205.895 5.89356 208.159 9.89103L208.77 10.9681C211.062 15.0141 216.86 15.1014 219.273 11.1262L220.252 9.51243C222.962 5.04877 229.374 4.86588 232.333 9.16785L233.244 10.4919C236.358 15.0176 243.072 14.9237 246.057 10.3126L246.48 9.66C249.373 5.19144 255.944 5.28686 258.706 9.83755L258.908 10.171C261.626 14.6481 268.123 14.6481 270.841 10.171L271.763 8.65211C274.115 4.77626 279.769 4.86137 282.004 8.80627L282.794 10.2007C284.979 14.0588 290.682 13.5839 292.199 9.41739V9.41739C293.641 5.45911 298.946 4.77028 301.351 8.2291L305 13.4783" stroke="url(#paint0_linear_245_247)" stroke-width="10" stroke-linecap="round"/>
<defs>
<linearGradient id="paint0_linear_245_247" x1="134.31" y1="14.0085" x2="137.479" y2="35.8572" gradientUnits="userSpaceOnUse">
<stop stop-color="#EAB5D1"/>
<stop offset="1" stop-color="#EAC461"/>
</linearGradient>
</defs>
</svg>
