<svg width="465" height="20" viewBox="0 0 465 20" fill="none" xmlns="http://www.w3.org/2000/svg">
<path d="M5 15L12.7539 10.9846C20.046 7.20832 28.6726 7.00802 36.1321 10.4418V10.4418C42.4781 13.3629 49.7179 13.6731 56.2904 11.3053L63.2018 8.81551C69.9893 6.37033 77.4658 6.69062 84.0193 9.70731L84.8118 10.0721C91.6061 13.1996 99.4567 13.1866 106.251 10.0591V10.0591C113.189 6.86541 121.223 6.94057 128.089 10.2868V10.2868C134.271 13.3001 141.409 13.685 147.879 11.354L155.731 8.52554C161.971 6.27771 168.865 6.73359 174.754 9.78344V9.78344C181.127 13.0835 188.648 13.3341 195.226 10.4654L197.715 9.38003C204.047 6.61862 211.303 6.95788 217.35 10.2981V10.2981C222.776 13.2956 229.208 13.891 235.093 11.9407L247.06 7.97437C252.781 6.0782 259.034 6.65711 264.31 9.57139L265.224 10.0761C270.812 13.1629 277.553 13.3353 283.292 10.5383C284.825 9.79141 286.332 9.05658 287.918 8.28383C292.02 6.28449 296.912 6.87036 300.426 9.78189V9.78189C304.204 12.912 309.54 13.3332 313.762 10.8345L316.045 9.4838C320.739 6.70574 326.552 6.61932 331.327 9.25664L333.108 10.2405C338.509 13.2242 345.026 13.3909 350.573 10.6873L352.773 9.6147C358.73 6.71124 365.71 6.7961 371.594 9.84356L372.516 10.3207C378.161 13.2442 384.894 13.1538 390.459 10.0799L390.761 9.91301C396.296 6.8554 403.014 6.8554 408.549 9.91301L410.285 10.872C414.916 13.4296 420.554 13.3458 425.106 10.6517L428.532 8.62402C432.167 6.47266 436.782 6.95838 439.89 9.81931V9.81931C443.181 12.8489 448.131 13.1954 451.812 10.6539L460 5" stroke="url(#paint0_linear_245_4)" stroke-width="10" stroke-linecap="round"/>
<defs>
<linearGradient id="paint0_linear_245_4" x1="201.121" y1="7.99574" x2="201.653" y2="-3.13297" gradientUnits="userSpaceOnUse">
<stop stop-color="#EAB5D1"/>
<stop offset="1" stop-color="#EAC461"/>
</linearGradient>
</defs>
</svg>
