<svg width="43" height="43" viewBox="0 0 43 43" fill="none" xmlns="http://www.w3.org/2000/svg">
<rect width="43" height="43" rx="21.5" fill="url(#paint0_linear_31_34)"/>
<path d="M20.1245 25.89C20.1245 24.93 20.3645 24.16 20.8445 23.58C21.3245 22.98 22.0245 22.39 22.9445 21.81L25.1945 20.4C25.9345 19.94 26.5445 19.38 27.0245 18.72C27.5245 18.06 27.7745 17.36 27.7745 16.62C27.7745 15.08 27.1945 13.86 26.0345 12.96C24.8945 12.06 23.3345 11.61 21.3545 11.61C19.3945 11.61 17.7945 12.09 16.5545 13.05C15.3345 13.99 14.6445 15.29 14.4845 16.95H12.8345C13.0345 14.83 13.8845 13.17 15.3845 11.97C16.8845 10.75 18.8745 10.14 21.3545 10.14C23.8545 10.14 25.8145 10.71 27.2345 11.85C28.6745 12.99 29.3945 14.56 29.3945 16.56C29.3945 17.48 29.0945 18.39 28.4945 19.29C27.9145 20.17 27.0945 20.93 26.0345 21.57L23.7245 22.98C23.0445 23.4 22.5045 23.82 22.1045 24.24C21.7245 24.64 21.5345 25.18 21.5345 25.86V27.3H20.2445C20.2045 27.06 20.1745 26.83 20.1545 26.61C20.1345 26.37 20.1245 26.13 20.1245 25.89ZM20.8445 33.18C20.4445 33.18 20.1045 33.04 19.8245 32.76C19.5445 32.48 19.4045 32.14 19.4045 31.74C19.4045 31.34 19.5445 31 19.8245 30.72C20.1045 30.44 20.4445 30.3 20.8445 30.3C21.2445 30.3 21.5845 30.44 21.8645 30.72C22.1445 31 22.2845 31.34 22.2845 31.74C22.2845 32.14 22.1445 32.48 21.8645 32.76C21.5845 33.04 21.2445 33.18 20.8445 33.18Z" fill="white"/>
<defs>
<linearGradient id="paint0_linear_31_34" x1="18.5345" y1="12.8817" x2="36.7349" y2="4.5161" gradientUnits="userSpaceOnUse">
<stop stop-color="#EAB5D1"/>
<stop offset="1" stop-color="#EAC461"/>
</linearGradient>
</defs>
</svg>
